<svg xmlns="http://www.w3.org/2000/svg" width="20" height="21" viewBox="0 0 20 21">
  <metadata><?xpacket begin="﻿" id="W5M0MpCehiHzreSzNTczkc9d"?>
<x:xmpmeta xmlns:x="adobe:ns:meta/" x:xmptk="Adobe XMP Core 5.6-c140 79.160451, 2017/05/06-01:08:21        ">
   <rdf:RDF xmlns:rdf="http://www.w3.org/1999/02/22-rdf-syntax-ns#">
      <rdf:Description rdf:about=""/>
   </rdf:RDF>
</x:xmpmeta>
                                                                                                    
                                                                                                    
                                                                                                    
                                                                                                    
                                                                                                    
                                                                                                    
                                                                                                    
                                                                                                    
                                                                                                    
                                                                                                    
                                                                                                    
                                                                                                    
                                                                                                    
                                                                                                    
                                                                                                    
                                                                                                    
                                                                                                    
                                                                                                    
                                                                                                    
                                                                                                    
                           
<?xpacket end="w"?></metadata>
<defs>
    <style>
      .cls-1 {
        fill-rule: evenodd;
      }
    </style>
  </defs>
  <path id="icon_bascket" class="cls-1" d="M1445.5,130a2.5,2.5,0,1,1-2.5,2.5A2.5,2.5,0,0,1,1445.5,130Zm7,0a2.5,2.5,0,1,1-2.5,2.5A2.5,2.5,0,0,1,1452.5,130Zm-10.04-12h14.08a1.434,1.434,0,0,1,1.46,1.411l-2.92,7.177c0,0.779-1.39,1.412-2.2,1.412h-8.42a1.435,1.435,0,0,1-1.46-1.412l-2-7.177A1.434,1.434,0,0,1,1442.46,118Zm-2.39-3.358,1.93-.518,2.07,7.728-1.93.517ZM1438,114h4v2h-4v-2Z" transform="translate(-1438 -114)"/>
</svg>
