<svg xmlns="http://www.w3.org/2000/svg" width="16" height="16" viewBox="0 0 16 16">
  <metadata><?xpacket begin="﻿" id="W5M0MpCehiHzreSzNTczkc9d"?>
<x:xmpmeta xmlns:x="adobe:ns:meta/" x:xmptk="Adobe XMP Core 5.6-c140 79.160451, 2017/05/06-01:08:21        ">
   <rdf:RDF xmlns:rdf="http://www.w3.org/1999/02/22-rdf-syntax-ns#">
      <rdf:Description rdf:about=""/>
   </rdf:RDF>
</x:xmpmeta>
                                                                                                    
                                                                                                    
                                                                                                    
                                                                                                    
                                                                                                    
                                                                                                    
                                                                                                    
                                                                                                    
                                                                                                    
                                                                                                    
                                                                                                    
                                                                                                    
                                                                                                    
                                                                                                    
                                                                                                    
                                                                                                    
                                                                                                    
                                                                                                    
                                                                                                    
                                                                                                    
                           
<?xpacket end="w"?></metadata>
<defs>
    <style>
      .cls-1 {
        fill-rule: evenodd;
      }
    </style>
  </defs>
  <path id="button_phone" class="cls-1" d="M1486.84,116.274l-0.9-.948s-1.12-.747-1.82,0-1.81,1.9-1.81,1.9-1.12.841,0.91,3.792,8.15,9.482,8.15,9.482,1.3,1.161,3.63,0,2.72-1.9,2.72-1.9a1.822,1.822,0,0,0,0-1.9,5.741,5.741,0,0,0-1.82-1.9,2.693,2.693,0,0,0-2.71.948c-1.87,2.122-6.35-3.792-6.35-3.792a2,2,0,0,1,0-1.9c1.18-1.569,1.96-1.349.91-2.844C1487.05,116.235,1486.84,116.274,1486.84,116.274Z" transform="translate(-1482 -115)"/>
</svg>
