<svg xmlns="http://www.w3.org/2000/svg" width="67" height="38" viewBox="0 0 67 38">
  <metadata><?xpacket begin="﻿" id="W5M0MpCehiHzreSzNTczkc9d"?>
<x:xmpmeta xmlns:x="adobe:ns:meta/" x:xmptk="Adobe XMP Core 5.6-c140 79.160451, 2017/05/06-01:08:21        ">
   <rdf:RDF xmlns:rdf="http://www.w3.org/1999/02/22-rdf-syntax-ns#">
      <rdf:Description rdf:about=""/>
   </rdf:RDF>
</x:xmpmeta>
                                                                                                    
                                                                                                    
                                                                                                    
                                                                                                    
                                                                                                    
                                                                                                    
                                                                                                    
                                                                                                    
                                                                                                    
                                                                                                    
                                                                                                    
                                                                                                    
                                                                                                    
                                                                                                    
                                                                                                    
                                                                                                    
                                                                                                    
                                                                                                    
                                                                                                    
                                                                                                    
                           
<?xpacket end="w"?></metadata>
<defs>
    <style>
      .cls-1 {
        fill: #d7569c;
        fill-rule: evenodd;
      }
    </style>
  </defs>
  <path id="icon_delivery" class="cls-1" d="M762,257h9v-8h34v30H771v-8h-8m-1-12h11v-8h30v26H773v-8H763m40-15h9a10,10,0,0,1,10,10v15H803V254Zm2,2h7c3.96,0,8,3.977,8,8v13H805V256Zm8,21a5,5,0,1,1-5,5A5,5,0,0,1,813,277Zm0,2a3,3,0,1,1-3,3A3,3,0,0,1,813,279Zm-30-2a5,5,0,1,1-5,5A5,5,0,0,1,783,277Zm0,2a3,3,0,1,1-3,3A3,3,0,0,1,783,279Zm2.171-19.829a1,1,0,0,1,1.415,0l4.242,4.243a1,1,0,0,1-1.414,1.414l-4.243-4.243A1,1,0,0,1,785.171,259.171Zm5.657,4a1,1,0,0,1,0,1.414l-4.242,4.243a1,1,0,0,1-1.415-1.415l4.243-4.242A1,1,0,0,1,790.828,263.171ZM756,263h33a1,1,0,1,1,0,2H756A1,1,0,1,1,756,263Z" transform="translate(-755 -249)"/>
</svg>
