<svg xmlns="http://www.w3.org/2000/svg" width="51.5" height="40" viewBox="0 0 51.5 40">
  <metadata><?xpacket begin="﻿" id="W5M0MpCehiHzreSzNTczkc9d"?>
<x:xmpmeta xmlns:x="adobe:ns:meta/" x:xmptk="Adobe XMP Core 5.6-c140 79.160451, 2017/05/06-01:08:21        ">
   <rdf:RDF xmlns:rdf="http://www.w3.org/1999/02/22-rdf-syntax-ns#">
      <rdf:Description rdf:about=""/>
   </rdf:RDF>
</x:xmpmeta>
                                                                                                    
                                                                                                    
                                                                                                    
                                                                                                    
                                                                                                    
                                                                                                    
                                                                                                    
                                                                                                    
                                                                                                    
                                                                                                    
                                                                                                    
                                                                                                    
                                                                                                    
                                                                                                    
                                                                                                    
                                                                                                    
                                                                                                    
                                                                                                    
                                                                                                    
                                                                                                    
                           
<?xpacket end="w"?></metadata>
<defs>
    <style>
      .cls-1 {
        fill: #d7569c;
        fill-rule: evenodd;
      }
    </style>
  </defs>
  <path id="book_icon" class="cls-1" d="M200,278c-6.651-1.918-12,3-12,3h0a12.751,12.751,0,0,0-11.5-2.5c-8.9,2.565-14-1-14-1v-36s4.563,5.067,14,3c7.119-1.559,11.5,1.5,11.5,1.5a15.758,15.758,0,0,1,12-2c9.437,2.067,14-3,14-3v36S208.9,280.565,200,278Zm0-31a15.758,15.758,0,0,0-12,2s-4.381-3.059-11.5-1.5c-9.437,2.067-11.5-1.5-11.5-1.5l-0.5,29.5s3.1,2.565,12,0A12.751,12.751,0,0,1,188,278h0s5.349-4.917,12-3c8.9,2.565,12,0,12,0V245S209.437,249.066,200,247Zm-27,15h6a1,1,0,1,1,0,2h-6A1,1,0,1,1,173,262Zm21-6h12a1,1,0,1,1,0,2H194A1,1,0,1,1,194,256Zm-24,0h12a1,1,0,1,1,0,2H170A1,1,0,1,1,170,256Zm27,6h6a1,1,0,1,1,0,2h-6A1,1,0,1,1,197,262Zm-10-14h2v31h-2V248Z" transform="translate(-162.5 -241)"/>
</svg>
