<svg xmlns="http://www.w3.org/2000/svg" width="54" height="49" viewBox="0 0 54 49">
  <metadata><?xpacket begin="﻿" id="W5M0MpCehiHzreSzNTczkc9d"?>
<x:xmpmeta xmlns:x="adobe:ns:meta/" x:xmptk="Adobe XMP Core 5.6-c140 79.160451, 2017/05/06-01:08:21        ">
   <rdf:RDF xmlns:rdf="http://www.w3.org/1999/02/22-rdf-syntax-ns#">
      <rdf:Description rdf:about=""/>
   </rdf:RDF>
</x:xmpmeta>
                                                                                                    
                                                                                                    
                                                                                                    
                                                                                                    
                                                                                                    
                                                                                                    
                                                                                                    
                                                                                                    
                                                                                                    
                                                                                                    
                                                                                                    
                                                                                                    
                                                                                                    
                                                                                                    
                                                                                                    
                                                                                                    
                                                                                                    
                                                                                                    
                                                                                                    
                                                                                                    
                           
<?xpacket end="w"?></metadata>
<defs>
    <style>
      .cls-1 {
        fill: none;
        stroke: #d7569c;
        stroke-width: 2px;
        fill-rule: evenodd;
      }
    </style>
  </defs>
  <path id="icon_map" class="cls-1" d="M1104,251a8.868,8.868,0,0,1,9,8.728c0,4.82-8.25,15.182-8.25,15.272,0,0.013-9.75-10.452-9.75-15.272A8.868,8.868,0,0,1,1104,251Zm0.25,7.095a2,2,0,1,1-2,2A2,2,0,0,1,1104.25,258.094ZM1073,265a12,12,0,0,1,12,12c0,6.628-10.99,20.877-11,21,0,0.017-13-14.373-13-21A12,12,0,0,1,1073,265Zm0,7a5,5,0,1,1-5,5A5,5,0,0,1,1073,272Zm13,18a19.928,19.928,0,0,1,7-9c4.56-3.188,8-3,8-3" transform="translate(-1060 -250)"/>
</svg>
