<svg xmlns="http://www.w3.org/2000/svg" width="57" height="42" viewBox="0 0 57 42">
  <metadata><?xpacket begin="﻿" id="W5M0MpCehiHzreSzNTczkc9d"?>
<x:xmpmeta xmlns:x="adobe:ns:meta/" x:xmptk="Adobe XMP Core 5.6-c140 79.160451, 2017/05/06-01:08:21        ">
   <rdf:RDF xmlns:rdf="http://www.w3.org/1999/02/22-rdf-syntax-ns#">
      <rdf:Description rdf:about=""/>
   </rdf:RDF>
</x:xmpmeta>
                                                                                                    
                                                                                                    
                                                                                                    
                                                                                                    
                                                                                                    
                                                                                                    
                                                                                                    
                                                                                                    
                                                                                                    
                                                                                                    
                                                                                                    
                                                                                                    
                                                                                                    
                                                                                                    
                                                                                                    
                                                                                                    
                                                                                                    
                                                                                                    
                                                                                                    
                                                                                                    
                           
<?xpacket end="w"?></metadata>
<defs>
    <style>
      .cls-1 {
        fill: #d7569c;
        fill-rule: evenodd;
      }
    </style>
  </defs>
  <path id="icon_box" class="cls-1" d="M516,256h-2v28a2,2,0,0,1-2,2H466a2,2,0,0,1-2-2V256h-1a2,2,0,0,1-2-2v-8a2,2,0,0,1,2-2h53a2,2,0,0,1,2,2v8A2,2,0,0,1,516,256Zm0-4v-6H463v8h3v30h46V254h4v-2Zm-46,2h11a1,1,0,1,1,0,2H470A1,1,0,1,1,470,254Zm27,0h11a1,1,0,1,1,0,2H497A1,1,0,1,1,497,254Zm-7,14c0,0.076-10,5-10,5V244h2v26s8-4.924,8-5c0-.117,6,4,6,4V244h2v29S490,267.882,490,268Z" transform="translate(-461 -244)"/>
</svg>
